<?xml version="1.0" encoding="UTF-8"?>

<svg id="Layer_1" data-name="Layer 1" xmlns="http://www.w3.org/2000/svg" viewBox="0 0 1494.9 1494.9">
  <defs>
    <style>
      .cls-1 {
        fill: #fff;
      }

      .cls-2 {
        fill: #3c3c47;
      }

      .cls-3 {
        fill: #353435;
      }

      .cls-4 {
        opacity: .25;
      }

      .cls-5 {
        fill: #231f20;
      }
    </style>
  </defs>
  <g id="coloredMenu">
    <circle class="cls-2" cx="747.45" cy="747.45" r="747.45"/>
    <polygon class="cls-5" points="750.92 749.33 750.92 749.36 750.89 749.36 750.86 749.33 750.92 749.33"/>
    <g>
      <polygon class="cls-1" points="1296.9 735.7 1282.36 721.15 1295.58 707.94 1296.9 709.26 1298.23 707.94 1311.45 721.15 1296.9 735.7"/>
      <path class="cls-1" d="M1255.75,694.54l-15.97-15.97,13.22-13.22,15.97,15.97-13.22,13.22Zm-21.29-21.29l-15.97-15.97,13.22-13.22,15.97,15.97-13.22,13.22Z"/>
      <polygon class="cls-1" points="1213.16 651.95 1198.62 637.41 1213.16 622.87 1226.38 636.09 1225.05 637.41 1226.38 638.73 1213.16 651.95"/>
      <path class="cls-1" d="M1231.7,630.76l-13.22-13.22,15.97-15.97,13.22,13.22-15.97,15.97Zm42.59-42.59l-13.22-13.22,15.97-15.97,13.22,13.22-15.97,15.97Z"/>
      <polygon class="cls-1" points="1298.23 566.88 1296.9 565.56 1295.58 566.88 1282.36 553.66 1296.9 539.12 1311.45 553.66 1298.23 566.88"/>
      <path class="cls-1" d="M1362.11,630.76l-15.97-15.97,13.22-13.22,15.97,15.97-13.22,13.22Zm-21.29-21.29l-15.97-15.97,13.22-13.22,15.97,15.97-13.22,13.22Z"/>
      <polygon class="cls-1" points="1380.65 651.95 1367.43 638.73 1368.75 637.41 1367.43 636.09 1380.65 622.87 1395.19 637.41 1380.65 651.95"/>
      <path class="cls-1" d="M1316.77,715.83l-13.22-13.22,15.97-15.97,13.22,13.22-15.97,15.97Zm21.29-21.29l-13.22-13.22,15.97-15.97,13.22,13.22-15.97,15.97Zm21.29-21.29l-13.22-13.22,15.97-15.97,13.22,13.22-15.97,15.97Z"/>
    </g>
    <g>
      <path class="cls-1" d="M236.59,726.43v8.41c-4.74,0-9.46-.02-14.2-.1-3.58-.06-5.48,.87-7.02,4.46-3.49,8.15-10.12,12.49-19.09,12.6-8.99,.1-15.85-4.09-19.33-12.22-1.88-4.39-4.42-4.92-8.38-4.81-7.59,.2-15.18,.03-22.77,.07-2.75,.02-5.07,.15-5.19-3.88-.13-4.2,1.9-4.66,5.27-4.6,7.84,.14,15.7-.04,23.55,.07,3.31,.05,5.55-.2,7.18-4.1,3.52-8.4,10.29-13.02,19.65-12.96,9.04,.06,15.65,4.6,19.07,12.65,1.77,4.17,4.16,4.47,7.78,4.45,4.49-.02,8.98-.03,13.48-.04Z"/>
      <path class="cls-1" d="M293.86,671.78c.27,2.96-1.69,3.64-3.99,3.33-8.44-1.15-13.46,1.51-18.5,9.46-7.77,12.26-27.3,10.02-34.01-3.08-2.76-5.41-5.87-6.53-11.39-6.47-18.52,.2-37.05,.2-55.57,.13v-8.34c5.97,0,11.95,.01,17.92,.01,13.36-.01,26.71-.14,40.06,.07,4.09,.06,6.2-.83,8.2-5.01,7.22-15.1,28.3-16.85,36.3-2.5,3.91,7.01,8.22,8.07,14.73,7.48,1.55-.14,3.22-.2,4.67,.24,2.42,.73,1.42,3,1.58,4.68Z"/>
      <path class="cls-1" d="M247.15,607.21v8.46c-2.98,0-5.95,.02-8.93,.02v.03c-16.48,0-32.95,.13-49.43-.09-3.88-.06-5.87,.94-7.6,4.65-4.64,9.96-14.54,14.42-24.64,11.82-8.9-2.29-15.64-10.89-15.8-20.16-.17-10.45,6.71-19.01,17.2-21.38,9.22-2.08,18.88,2.48,23.07,11.95,1.9,4.31,4.44,4.77,8.35,4.76,19.26-.06,38.52-.08,57.78-.06Z"/>
    </g>
    <g>
      <path class="cls-1" d="M465.17,293.7h0s-.27-.3-.27-.3l-41.84-45.33h-29.85v10.25c6.2,0,12.4-.01,18.6-.05,2.2-.01,2.91,.48,2.85,2.79-.17,6.22-.08,12.43-.05,18.65,.07,14.7,9.59,24.54,24.25,24.98,4.6,.14,9.21,.2,13.82,.12,1.86-.03,2.58,.32,2.58,2.43-.05,17.77-.04,35.54-.05,53.32h10.29s0-66.83,0-66.83c-.11,0-.23-.01-.33-.03Zm-29.61,.52c-6.75-1.45-10.74-6.37-11-13.79-.19-5.3-.04-10.62-.04-16.85,9.85,10.68,19.12,20.74,28.88,31.34-6.46-.07-12.19,.51-17.84-.7Zm-87.07,94.04c-.01-19.5-.01-39.01-.01-58.51v-21.31h-10.28s0,82.38,0,82.38t-.01,.01v1.28c.68,2.11,.53,4.38,1.6,6.43,3.54,6.79,8.64,11.5,16.41,12.87h74.09s0-10.26,0-10.26c-22.98,.02-45.95,.02-68.93-.01-7.65-.01-12.87-5.27-12.87-12.88Z"/>
      <path class="cls-1" d="M427.36,318.95c-17.02-.05-34.03-.05-51.05,0-3.44,.01-5.89,2.25-5.92,5.04-.03,3.06,2.35,5.11,6.08,5.11,8.35,.02,16.7,0,25.04,0s17.13,.01,25.68,0c3.62,0,5.93-1.87,6.09-4.79,.15-2.93-2.35-5.35-5.92-5.37Z"/>
      <path class="cls-1" d="M424.5,344.47c-8.03-.03-16.05-.01-24.08-.01s-10.05-.02-18.08,.01c-3.65,.01-5.91,1.9-5.94,4.85-.04,2.91,2.28,5.02,5.8,5.03,16.16,.04,26.32,.05,42.48,0,3.8-.01,5.69-1.79,5.62-5.01-.06-3.17-2.03-4.87-5.79-4.88Z"/>
      <path class="cls-1" d="M411.31,369.62c-6.43-.02-7.86,0-14.29,0s-13.29-.01-19.93,0c-4.17,.01-6.81,2.1-6.71,5.24,.1,3.08,2.61,5.02,6.59,5.03,13.07,.01,21.14,.01,34.21,0,4.16,0,6.76-2.07,6.65-5.24-.1-3.11-2.55-5.02-6.54-5.04Z"/>
    </g>
    <g>
      <path class="cls-1" d="M298.67,1048.46c0,2.63-1.02,5.1-2.88,6.95l-7.98,7.98-7.35-7.35c-8.56-8.56-11.02-20.95-7.35-31.7l17.75,18.5,6.12,.12c1.1,1.61,1.69,3.51,1.69,5.5Z"/>
      <path class="cls-1" d="M392.64,1012.08l-14.38,15.22-35.4-33.45-.11-.11c-3.83-3.83-10.06-3.83-13.89,0l-22.78,22.78-14.91-14.69,22.88-22.89c11.96-11.96,31.39-12,43.39-.12l35.2,33.26Z"/>
      <path class="cls-1" d="M285.1,1066.1l14.55,15.07-22.65,22.65c-6,5.99-13.88,8.99-21.76,8.99s-15.63-2.95-21.61-8.86l-35.7-33.35,14.29-15.3,35.95,33.59,.13,.12c1.85,1.86,4.32,2.88,6.94,2.88s5.1-1.02,6.95-2.88l22.91-22.91Z"/>
      <path class="cls-1" d="M357.56,1089.64c-6,6-13.88,9-21.75,9s-15.76-3-21.76-9l-26.24-26.25,7.98-7.98c1.86-1.85,2.88-4.32,2.88-6.95,0-1.99-.59-3.89-1.69-5.5-.34-.51-.74-.99-1.19-1.44l-33.6-33.6c-3.83-3.83-10.06-3.83-13.89,0l-14.81-14.81c12-11.99,31.51-11.99,43.51,0l33.6,33.6c9.61,9.62,11.52,24.06,5.72,35.59l12.54,12.54c1.86,1.85,4.32,2.87,6.95,2.87s5.09-1.02,6.94-2.87l14.81,14.8Z"/>
    </g>
    <rect class="cls-5" x="750.89" y="749.33" width=".03" height=".03"/>
    <polygon class="cls-5" points="750.92 749.33 750.92 749.36 750.89 749.36 750.86 749.33 750.92 749.33"/>
    <polygon class="cls-5" points="750.92 749.33 750.92 749.36 750.89 749.36 750.86 749.33 750.92 749.33"/>
    <polygon class="cls-5" points="750.89 749.33 750.89 749.36 750.86 749.33 750.89 749.33"/>
    <polygon class="cls-5" points="750.89 749.33 750.89 749.36 750.86 749.33 750.89 749.33"/>
    <polygon class="cls-5" points="750.89 749.33 750.89 749.36 750.86 749.33 750.89 749.33"/>
    <polygon class="cls-5" points="750.89 749.33 750.89 749.36 750.86 749.33 750.89 749.33"/>
    <rect class="cls-1" x="1283.34" y="623.84" width="27.13" height="27.13" transform="translate(-70.86 1103.74) rotate(-45)"/>
    <path class="cls-1" d="M1250.11,1062.67c-1,0-1.98-.27-2.84-.78l-16.47-9.03c-2.15-1.26-4.59-1.93-7.06-1.93-3.18,0-6.28,1.11-8.73,3.13-9.06,7.57-19.15,11.57-29.18,11.57-3.95,0-7.96-.61-11.91-1.83-13.79-4.27-28.04-15.27-35.3-21.44-10.88-9.25-15.41-15.07-17.09-18.66-3.17-6.77,.89-14.57,2.03-16.53,1.55,.11,4.76,1.4,6.02,2.11l33.31,17.46,.22,.06c.72,.21,1.47,.32,2.22,.32,3.01,0,5.82-1.74,7.15-4.42l15.99-31.91c.94-1.89,1.1-4.04,.43-6.05-.65-1.96-2-3.55-3.81-4.51l-32.47-22.55-.13-.07c-.43-.22-.57-.59-.62-.79-.04-.15-.07-.4,.02-.69,1.97-1.16,4.26-2.39,4.97-2.64,1.87-.08,4.81-.17,8.48-.17,16.41,0,43.55-1.25,62.19,10.28l.94,.94,1.33-.73c3.05-1.68,8.82-4.54,13.17-4.76h0c.26,0,.39,.14,.47,.26,.07,.11,.16,.34,.02,.62l-4.54,8.75c-.97,1.84-.84,4.15,.33,6.02,.37,.62,.78,1.31,1.12,2.03l.03,.06c3.34,6.65,4.36,15.52,2.96,25.63-.83,5.72,2.05,11.41,7.17,14.15l41.59,21.99c2.01,1.06,3.15,3.19,2.9,5.42-.08,.69-.16,1.38-.26,2.06-.04,.3-.33,.41-.5,.41-.08,0-.15-.02-.22-.05-50.36-24.39-81.27-18.08-36.74,12.48,.21,.15,.23,.37,.23,.46,0,.17-.07,.3-.2,.38-1.67,1.05-3.48,1.93-5.37,2.6-.58,.21-1.2,.31-1.82,.31h0Zm-44.63-19.49c.18,.02,.35,.03,.53,.02,2.27-.02,4.28-1.57,5.24-4.05l.8-1.96,2.31-5.72,3.1-7.76,2.31-5.7,3.13-7.83,1.23-3-5.92-8.86-3.67,7.78,2.06,3.28-1.05,2.63-2.18-3.53-4.03,8.59,2.55,4.01-1.04,2.59-2.64-4.24-4.09,8.64,3.09,4.71-.22,.58c-.27,.63-.75,1.09-1.29,1.26l-2.58-4.32-4,8.35,2.21,3.16,2.75,1.06c.43,.16,.88,.29,1.41,.3Zm-13.3-20.77l-1.77,4.06,5.83,8.21,3.9-8.46-2.11-3.26,.98-2.27,2.22,3.24,4.03-8.74-2.34-3.56,.99-2.31,2.42,3.57,4.04-8.72-2.56-3.88,.56-1.33c.15-.33,.36-.62,.61-.84l2.49,3.65,3.67-7.97-2.16-3.27-.32-.2c-.85-.53-1.79-.81-2.72-.8-.36,0-.73,.05-1.08,.14-1.76,.38-3.28,1.72-4.18,3.7l-1.26,2.92-2.54,5.93-3.07,7.13-2.78,6.4v.04s-2.86,6.63-2.86,6.63Z"/>
    <path class="cls-1" d="M670.14,261.46h111.82l5.69-9.25h-112.17l-5.34,9.25Zm47.45-78.22l-8.43-5.76c-26.35,19.32-42.31,41.33-51.55,57.97h12.9c.06-.09,.12-.18,.18-.27,10.42-15.87,27.68-25.93,46.61-27.43,6.92-.54,14.87-1.01,23.42-1.2l-23.13-23.32Zm-.75-11.1s59.71,34.15,94.04,20.99c25.56-9.8,38.42-41.53,38.77-42.13l-24.76,79.33h10.26l28.37-96.85c-66.96,0-113.97,17.03-146.68,38.67Z"/>
    <g>
      <g>
        <path class="cls-1" d="M898.07,1217.97v1.04c.57-.33,1.1-.69,1.6-1.09-.95,.08-1.6,.06-1.6,.06Z"/>
        <path class="cls-1" d="M972.3,1304.78c10.01-9.45,13.92-21.09,11.04-34.77-3.76-17.84-21.04-30.17-38.76-28.14-18.98,2.18-32.7,17.37-32.67,36.13,.02,7.59,2.55,18.6,11.48,26.69-5.49,.2-10.73,.46-15.66,.79-4.55,.3-60.08,4.07-60.08,8.63,0,0,.59,4.75,5.13,5.05,11.54,.76,79.73,4.78,93.82,4.78,44.78,0,81.08-4.41,81.08-9.84,0-4.34-23.21-8.02-55.39-9.33Zm-27.7-19.08c-1.15,0-1.91-.69-1.91-1.92s.71-1.83,1.83-1.95c1.26,.09,1.97,.8,2,1.94,.02,1.17-.78,1.92-1.92,1.94Zm1.49,5.21c-.82,2.61-.54,5.67-1.89,8.41-.88,1.78-1.89,2.63-3.87,1.6-1.46-.77-3.07-1.28-4.5-2.09-3.38-1.95-3.66-2.86-1.4-6.02,1.45-2.03,3.27-3.78,4.93-5.64,.35-.41,.77-.94,1.38-.43,1.46,1.18,3.12,1.95,4.9,2.5,.69,.22,.43,.92,.45,1.68Zm-.51-12.71c.06-1.8,1.32-2.7,2.97-2.69,1.83,.03,2.97,1.2,2.9,3.04-.08,1.86-1.26,2.8-3.26,2.86-1.78-.23-2.67-1.4-2.61-3.21Zm1.03-6.38c.02-1.21,.75-1.92,1.91-1.91,1.12,.03,1.88,.66,1.94,1.83-.11,1.28-.78,1.98-1.94,1.98-1.15-.02-1.92-.69-1.91-1.91Zm5.82,13.48c-1.23,.05-1.92-.71-1.92-1.89s.71-1.83,1.83-2c1.21,.15,2,.78,2.01,1.97,.03,1.18-.75,1.87-1.92,1.92Zm3.5,2.01c2.69,2.57,5.7,5.1,6.7,9.02,.12,.51,.03,.89-.38,1.21-2.55,1.91-5.39,3.2-8.5,3.92-.92,.25-1.32-.32-1.77-.97-2.07-3.07-1.91-6.72-2.58-10.13-.12-.6,.18-1.06,.89-1.15,.35-.03,.71-.23,1.08-.26,1.74-.12,3.29-2.86,4.56-1.64Zm-8.39,11.19c.8,1.14,1.48,2.26,.94,3.53-.18,.43-.86,.48-1.21,.15-1.38-1.29,.51-2.43,.28-3.69Zm15.91-7.18c.12-.11,.25-.22,.37-.32,.55,.26,1.14,.51,1.66,.83,.58,.35,1.52,.41,1.35,1.41-.05,.28-.42,.66-.71,.74-.95,.26-1.14-.71-1.63-1.17-.43-.41-.69-.98-1.05-1.49Zm8.71-10.62c-.31,1.44-.55,2.9-.95,4.32-1.34,4.72-2.67,5.27-7.15,3.1-.58-.29-1.14-.63-1.71-.94-4.93-2.77-5.29-3.72-3.3-8.76,.29-.77,.84-.89,1.51-.91,1.29-.02,2.58,0,3.15,0,2.77-.31,4.72-.23,6.73,.37,1.66,.49,2.04,1.32,1.72,2.81Zm-.29-7.64c.14,.71,.12,1.37-.78,1.41-1.09,.06-2.17,.02-3.26,.02-.03-.18-.08-.38-.12-.58,.97-.48,1.92-1,2.9-1.43,.57-.25,1.09-.17,1.26,.58Zm-14.26-16c.17-.83,.4-1.38,1.43-.86,.82,.4,1.17,.86,.51,1.66-.8,.94-1.29,2.17-2.84,2.86,.35-1.38,.66-2.52,.91-3.66Zm-2.64,11.46c2.29-2.86,3.83-6.33,7.25-8.24,1.2-.68,1.91-.68,2.83,.31,1.97,2.11,3.73,4.35,4.99,7.16-.58,1.54-2.09,2.38-3.29,3.44-.72,.63-1.78,.92-2.72,1.31q-5.59,2.29-8.96-2.54c-.35-.51-.57-.88-.11-1.44Zm1.65,7.35c.09,1.24-.75,1.78-1.86,2.06-1.09-.15-1.95-.6-1.97-1.87-.03-1.18,.55-1.94,1.8-2,1.23-.05,1.94,.63,2.03,1.81Zm-13.94-20.36c.18-1.01,.58-1.46,1.57-1.52,1.2-.09,2.38-.25,3.58-.38,0,.05,0,.06,.02,.11,.46,0,.92-.03,1.38,0,4.87,.37,5.9,1.8,4.78,6.7-.18,.81-.46,1.6-.69,2.41-1.43,5.06-2.61,5.78-7.77,4.86-.52-.09-.88-.29-1-.8-.91-3.73-2.57-7.35-1.86-11.37Zm1.32,21.08c-.08,1.23-.85,1.87-1.98,1.81-1.18-.06-1.86-.88-1.8-2.04,.06-1.17,.83-1.77,2-1.8,1.2,.17,1.86,.8,1.78,2.03Zm-6.33-20.68c.75-.34,1.2-.22,1.37,.68,.23,1.15,.52,2.29,.85,3.61-1.52-.51-1.91-1.77-2.71-2.61-.72-.77-.34-1.31,.49-1.67Zm-11,10.57c1.43-2.4,3.06-4.64,5.13-6.53,.34-.31,.74-.54,1.28-.92,1.4,1.05,2.87,2,4.2,3.14,.68,.58,1.11,1.48,1.64,2.23,3.37,4.76,3.3,5.41-.74,9.3-.38,.37-.8,.52-1.23,.32-3.41-1.58-7.27-2.35-9.91-5.38-.63-.74-.92-1.24-.37-2.15Zm-2.4,6.27c.2-1.06,.83-1.06,1.64-.65,.89,.46,1.81,.86,2.74,1.29-.01,.22-.05,.43-.06,.63-1,0-2,.03-3,0-.81-.02-1.52-.2-1.32-1.28Zm5.64,4.03c.55,.02,1.12,0,1.68,0,5.26,.31,6.38,1.38,6.56,6.5,.02,.31-.12,.83-.35,.94-3.3,1.6-6.12,4.27-10.08,4.43-1.14,.06-1.69-.34-2-1.37-.42-1.41-1.01-2.8-1.32-4.24-1.14-5.36-.15-6.45,5.52-6.25Zm2.07,14.09c-.63,1.14-.89,2.6-2.46,2.61-.22,0-.72-.86-.61-1.04,.68-1.18,1.89-1.34,3.07-1.57Z"/>
      </g>
      <path class="cls-1" d="M1048.15,1287.1c-1.16-.87-2.41-1.79-3.77-2.26-2.23-.77-2.6-1.79-1.87-4.09,2.81-8.78,5.33-17.66,5.42-27.01,.03-2.07,.03-4.24-1.14-5.97-2.37-3.52-1.42-6.7,.66-9.83,2.5-3.78,2.33-4.61-1.48-6.87-16.98-10.05-35.4-16.21-54.65-20.16-17.44-3.56-35.14-5.04-52.89-5.77-7.9-.35-15.23-2.21-22.18-5.96-4.84-2.62-53.43-32.27-54.26-28.12-.14,2.35,.32,4.42,1.24,6.28,.92,1.86,2.3,3.49,3.98,4.97,10.54,7.83,23.81,9.49,32.94,20.27,3.04,4.05,1.14,8.1-2.31,10.82-.52,.41-1.08,.8-1.67,1.14-1.87,1.13-4,1.89-5.97,2.14-9.12,.83-17.42-6.64-26.54-1.66-4.98,2.49-4.15,9.12-.83,10.78,9.95,4.98,27.37,2.49,29.52,16.64,.31,2.78,.07,4.94,.07,4.94-3.88,14.91-12.18,34.82-30.63,35.79-2.6,.46-5.18,.85-7.67,1.42-4.98,1.14-9.54,3-12.86,7.56,12.44,0,24.88,1.66,37.34,1.48,2.84,0,5.68,0,8.54-.03s5.72-.06,8.58-.1c4.78-.39,7.7-.66,7.7-.66,1.33,0,3.04,.62,2.72-2.02-.69-6.07-.45-12.15,.27-18.21,.94-7.53,2.46-14.88,6.78-21.39,15.51-23.4,56.46-24.18,71.91,6.11,5.16,10.11,6.28,20.98,5.43,32.09-.21,2.81,.7,3.5,3.31,3.43,8.93-.17,17.88-.11,26.8-.22,1.44-.02,3.02-.17,4.31-.76,4.25-1.98,8.7-2.07,13.24-1.99,3.14,.02,6.28,.25,9.38-.44,1.67-.37,2.02-1.26,.58-2.35Zm-11.17-18.95c-1,4-1.97,7.99-2.88,11.98-.45,1.96-1.63,2.77-3.55,2.78-3.33,.02-6.66,.22-9.99,.05-4.06-.22-6.74-3.66-6.29-7.65,.46-3.89,4.01-8.93,8.94-8.37,1.92,.21,3.9-.18,5.87-.29,0-.02-.02-.05-.02-.07,2.06-.1,4.12-.1,6.16-.31,1.58-.17,2.16,.24,1.74,1.87Zm3.04-31.56c-1.98,.66-2.63,2.19-3.24,4-.42,1.23-1.82,1.8-3.17,1.75-13.84-.62-26.68-4.04-37.22-13.63-1.3-1.17-2.31-2.62-3.12-4.81,9.31,1.53,18.09,2.98,26.85,4.41,4.84,.8,9.65,1.75,14.52,2.37,3.02,.39,3.92,2.94,5.63,4.69,.43,.44,.21,1.08-.25,1.22Z"/>
    </g>
    <polygon class="cls-3" points="280.2 1067.78 278.64 1066.22 278.65 1066.21 280.2 1067.78"/>
    <path class="cls-1" d="M806.8,229.12c-3.19-.89-6.47-1.63-9.67-2.59-1.27-.38-2.54-.8-3.81-1.2,4.26-.07,8.61-1.24,12.57-2.87,6.74-2.77,12.96-6.79,18.27-11.78-5.07,1.78-10.55,2.05-15.93,1.87-10.81-.36-21.56-2.48-31.69-6.25-6.67-2.48-13.19-5.7-20.27-6.47-2.35-.26-4.85-.23-7.03,.79-1.33,.62-2.67,1.35-3.96,2.16-27.93-22.8-28.5-23.02-58.73-42.64-6-3.89-12.3-7.62-19.32-8.98-.85-.16-1.76-.29-2.55,.05-2.34,1-1.57,4.55-.14,6.66,4.12,6.09,10.29,10.44,16.29,14.69,28.19,19.94,30.09,15.94,56.95,37.63-.94,1.9-1.27,4.09-1.32,6.23-.15,7.41,2.9,14.82,8.22,19.98,3.71,3.6,8.37,6.06,12.99,8.38,3.2,1.61,6.55,3.21,10.14,3.29-9.15-7.33-14.87-18.76-15.29-30.48l.1-.02c1.55,3.28,3.22,6.58,5.19,9.63,1.72,2.68,4.3,5.23,6.47,7.6,2.24,2.44,4.64,4.77,7.43,6.55,5.48,3.49,12.2,4.64,18.69,4.25,5.39-.32,10.74-1.68,15.57-4.1,4.31-2.16,6.91-5.45,9.93-9.14,.85-1.04,1.71-2.09,2.33-3.29-3.43,.41-8.07,.98-11.44,.04Z"/>
    <g>
      <path class="cls-1" d="M1079.01,377.78c-10.61,0-21.53-.97-32.7-2.92-14.92-2.61-23.88-12.15-25.9-27.57-1.69-12.82-1.43-24.1,.81-34.48,2.41-11.2,9.32-18.71,20.53-22.33,8.69-2.79,17.6-3.19,25.17-3.22h1.49c9.24-.04,18.78-.08,28.22,0,0-.27,.01-.53,.02-.78,.01-.32,.02-.64,.02-.96,0-7.72-.71-8.46-8.32-8.82-11.32-.52-22.41,.13-32.95,1.95-3.94,.68-7.84,.73-11.47,.69-9.12-.11-14.93-4.98-16.35-13.7l9.87-1.61c.55,3.4,1.77,5.25,6.6,5.31,3.64,.05,6.68-.04,9.65-.55,11.26-1.94,23.07-2.64,35.11-2.09,13.01,.61,17.84,5.69,17.85,18.77,0,.42-.01,.87-.03,1.32-.02,.6-.04,1.18,.01,1.54,.36,2.65-.19,4.82-1.64,6.46-2.22,2.52-5.48,2.49-6.7,2.47-9.96-.1-20.08-.07-29.88-.03h-1.49c-7.15,.03-14.78,.39-22.15,2.75-7.77,2.5-12.16,7.24-13.81,14.91-1.99,9.24-2.21,19.4-.67,31.07,1.46,11.12,7.09,17.16,17.71,19.02,20.84,3.64,40.73,3.7,59.1,.18l1.88,9.82c-9.65,1.85-19.68,2.77-30.01,2.77Z"/>
      <path class="cls-1" d="M1079.01,377.78c-10.61,0-21.53-.97-32.7-2.92-14.92-2.61-23.88-12.15-25.9-27.57-1.69-12.82-1.43-24.1,.81-34.48,2.41-11.2,9.32-18.71,20.53-22.33,8.69-2.79,17.6-3.19,25.17-3.22h1.49c9.24-.04,18.78-.08,28.22,0,0-.27,.01-.53,.02-.78,.01-.32,.02-.64,.02-.96,0-7.72-.71-8.46-8.32-8.82-11.32-.52-22.41,.13-32.95,1.95-3.94,.68-7.84,.73-11.47,.69-9.12-.11-14.93-4.98-16.35-13.7l9.87-1.61c.55,3.4,1.77,5.25,6.6,5.31,3.64,.05,6.68-.04,9.65-.55,11.26-1.94,23.07-2.64,35.11-2.09,13.01,.61,17.84,5.69,17.85,18.77,0,.42-.01,.87-.03,1.32-.02,.6-.04,1.18,.01,1.54,.36,2.65-.19,4.82-1.64,6.46-2.22,2.52-5.48,2.49-6.7,2.47-9.96-.1-20.08-.07-29.88-.03h-1.49c-7.15,.03-14.78,.39-22.15,2.75-7.77,2.5-12.16,7.24-13.81,14.91-1.99,9.24-2.21,19.4-.67,31.07,1.46,11.12,7.09,17.16,17.71,19.02,20.84,3.64,40.73,3.7,59.1,.18l1.88,9.82c-9.65,1.85-19.68,2.77-30.01,2.77Z"/>
      <path class="cls-1" d="M1106.71,321.46c.02-2.28-.67-4.13-2.04-5.47-.95-.93-2.65-2.02-5.41-1.91-4.25,.14-8.64,.07-12.88,.01-7.31-.11-14.87-.22-22.44,.67-9.03,1.05-13.12,5.26-13.68,14.05-.49,7.81,.58,15.49,11.66,18.69,5.16,1.49,10.39,1.67,15.19,1.67,.75,0,1.5,0,2.23,0l1.34-.02c5.63-.06,11.45-.13,17.36-2.3,2.69-.98,4.79-2.5,6.25-4.46,1.45-1.95,2.26-4.34,2.34-7.07,.09-2.91,.08-5.82,.07-8.64,0-1.73,0-3.47,.01-5.21Zm-10.08,13.54c-.03,.98-.2,1.78-2.04,2.46-4.29,1.57-9.02,1.63-14.03,1.68l-1.32,.02c-4.9,.02-9.96,.06-14.55-1.27-3.46-1-4.89-1.41-4.45-8.45,.23-3.65,.27-4.21,4.87-4.75,4.57-.54,9.14-.68,13.82-.68,2.4,0,4.82,.04,7.3,.08,3.42,.05,6.94,.1,10.47,.05v2.56c0,.87,.01,1.74,.01,2.62,0,1.9-.02,3.81-.08,5.68Z"/>
      <path class="cls-1" d="M1137.62,344.47l-10-.04c0-.57,.25-56.9-.2-67.38-.71-16.67-8.17-25.05-24.95-28.04-9.56-1.69-19.12-1.49-29.25-1.28-1.95,.04-3.89,.08-5.84,.11l-.14-10c1.92-.03,3.85-.07,5.77-.11,10.16-.21,20.68-.43,31.21,1.43,21.42,3.82,32.28,16.07,33.19,37.46,.46,10.71,.22,65.53,.21,67.85Z"/>
    </g>
    <polygon class="cls-1" points="570.9 1344.31 571.07 1267.84 524.94 1243.81 524.94 1296.1 540.47 1304.26 540.37 1270.26 553.59 1278.14 554.01 1334.55 506.18 1306.93 506.18 1220 513.86 1215.57 581.05 1250.32 627.86 1224.98 581.5 1198.21 564.08 1207.71 595.11 1224.55 581.39 1233.17 530.82 1205.78 581.46 1176.54 656.75 1220 656.75 1230.9 591.22 1267.76 591.22 1323.12 637.99 1296.1 637.99 1277.54 607.83 1294.54 607.83 1277.1 656.75 1250.39 656.75 1306.93 581.46 1350.41 570.9 1344.31"/>
    <g class="cls-4">
      <g>
        <path class="cls-1" d="M749.76,901.25c-.4,0-.8,0-1.19,.01,.69-.05,1.39-.07,2.09-.07,1.23,0,2.44,.07,3.63,.21-1.5-.09-3-.15-4.53-.15Z"/>
        <path class="cls-1" d="M759.25,891.66c-3.2-.34-6.45-.52-9.77-.52-1.85,0-3.69,.06-5.5,.17-47.41,2.82-80.26,41.16-80.26,41.16,0,0,32.87,41.38,81.83,41.38,1.67,.21,3.38,.31,5.11,.31,2.37,0,4.7-.2,6.96-.58,.02,0,.03,0,.04,0,46.21-4.07,79.93-41.11,79.93-41.11,0,0-32.95-36.07-78.34-40.81Zm-74.28,40.83s11.82-13.81,30.93-23.05c-4.38,6.6-6.94,14.52-6.94,23.04s2.6,16.57,7.05,23.21c-19.18-9.29-31.05-23.19-31.05-23.19Zm65.7,31.25c-17.27,0-31.28-14-31.28-31.27s12.89-30.13,29.19-31.2c.69-.05,1.39-.07,2.09-.07,1.23,0,2.44,.07,3.63,.21,15.56,1.8,27.64,15.03,27.64,31.07,0,17.27-14,31.27-31.27,31.27Zm35.25-8.99c4.09-6.44,6.45-14.08,6.45-22.28s-2.33-15.71-6.34-22.12c18.54,9.22,30.34,22.13,30.34,22.13,0,0-11.84,13.01-30.44,22.26Z"/>
        <path class="cls-1" d="M749.76,901.25c-.4,0-.8,0-1.19,.01,.69-.05,1.39-.07,2.09-.07,1.23,0,2.44,.07,3.63,.21-1.5-.09-3-.15-4.53-.15Z"/>
        <path class="cls-1" d="M768.44,932.47c0,9.82-7.96,17.78-17.78,17.78s-17.78-7.96-17.78-17.78,7.96-17.78,17.78-17.78,17.78,7.96,17.78,17.78Z"/>
      </g>
    </g>
    <g>
      <rect class="cls-1" x="745.96" y="980.9" width="5.47" height="12.33"/>
      <rect class="cls-1" x="779.2" y="975.19" width="5.47" height="12.33" transform="translate(-256.58 277.1) rotate(-17.31)"/>
      <rect class="cls-1" x="809.17" y="961.3" width="5.47" height="12.33" transform="translate(-403.87 625.3) rotate(-34.28)"/>
      <rect class="cls-1" x="709.54" y="978.62" width="12.33" height="5.47" transform="translate(-434.15 1372.65) rotate(-72.69)"/>
      <rect class="cls-1" x="679.56" y="964.73" width="12.33" height="5.47" transform="translate(-499.91 989.22) rotate(-55.72)"/>
      <path class="cls-1" d="M837.59,932.47s-36.21,41.7-89.02,41.7-84.84-41.7-84.84-41.7h21.24s26.61,31.27,63.73,31.27,67.65-31.25,67.65-31.25l21.24-.02Z"/>
    </g>
    <polygon class="cls-1" points="841.25 487.13 726.37 596.28 695.63 539.81 721.55 560.39 841.25 487.13"/>
    <g>
      <path class="cls-1" d="M515.76,470.76c60.2-52.13,137.5-84.99,222.24-88.93v-11.23c-44.87,2-88.43,11.82-129.71,29.28-36.82,15.57-70.55,36.65-100.6,62.82l8.07,8.07Z"/>
      <path class="cls-1" d="M389.93,720.94c6.22-85.75,42.09-163.41,97.38-222.75l-8.04-8.04c-30.38,32.5-54.53,69.64-71.86,110.6-16.22,38.35-25.85,78.67-28.73,120.19h11.26Z"/>
      <path class="cls-1" d="M1025.57,500.82c53.91,58.99,88.83,135.62,94.95,220.11h11.26c-2.89-41.52-12.51-81.84-28.73-120.19-16.86-39.86-40.18-76.11-69.42-107.98l-8.06,8.06Z"/>
      <path class="cls-1" d="M777.51,382.09c84.02,5.07,160.49,38.59,219.88,91.03l8.06-8.06c-30.72-27.26-65.37-49.16-103.28-65.2-39.72-16.8-81.56-26.53-124.65-29.02v11.24Z"/>
      <path class="cls-1" d="M480.66,989.85c-54.42-61.62-88.46-141.64-91.48-229.4h-11.23c1.53,46.45,11.41,91.52,29.45,134.17,16.04,37.92,37.94,72.56,65.2,103.28l8.06-8.06Z"/>
      <path class="cls-1" d="M1121.27,760.45c-2.98,86.48-36.08,165.45-89.12,226.7l8.07,8.07c26.16-30.05,47.25-63.79,62.82-100.6,18.04-42.64,27.92-87.72,29.45-134.17h-11.23Z"/>
      <path class="cls-1" d="M1004.72,1015.6c-60.36,56.25-139.69,92.4-227.21,97.68v11.24c43.09-2.49,84.92-12.22,124.65-29.02,40.96-17.32,78.1-41.48,110.6-71.86l-8.04-8.04Z"/>
      <path class="cls-1" d="M738,1113.55c-88.25-4.11-168.43-39.59-229.63-95.52l-8.06,8.06c31.87,29.24,68.12,52.56,107.98,69.42,41.28,17.46,84.83,27.28,129.71,29.28v-11.23Z"/>
    </g>
  </g>
</svg>